# xmcd
#
# Track frame offsets:
#	150
#	16642
#	35336
#	55395
#	76401
#	98160
#	113454
#	130448
#	154352
#	167556
#	189008
#	203912
#	215500
#	235180
#	267165
#
# Disc length: 4265 seconds
#
# Revision: 0
# Processed by: cddbd v1.5.1PL2 Copyright (c) Steve Scherf et al.
# Submitted via: dBpowerAMP V4.0
#
DISCID=bd10a70f
DTITLE=Jose Luis Pardo and The Mojo workers -  - As the years go passing by
DYEAR=2004
DGENRE=Blues
TTITLE0=Dame tu amor
TTITLE1=My eyes keep me in trouble
TTITLE2=Phone Booth
TTITLE3=Crosseyed Cat
TTITLE4=Like a Rolling Stone
TTITLE5=Hey Joe
TTITLE6=If you love me like you say
TTITLE7=I'll be your baby tonight
TTITLE8=Mary had a little lamb
TTITLE9=Blues para mi guitarra
TTITLE10=Shake for me
TTITLE11=Amazing Grace
TTITLE12=Por el otro
TTITLE13=Jumping the blues
TTITLE14=As the years go passing by
EXTD=
EXTT0=
EXTT1=
EXTT2=
EXTT3=
EXTT4=
EXTT5=
EXTT6=
EXTT7=
EXTT8=
EXTT9=
EXTT10=
EXTT11=
EXTT12=
EXTT13=
EXTT14=
PLAYORDER=
